<svg xmlns="http://www.w3.org/2000/svg" width="1280" height="720" viewBox="0 0 1280 720" role="img" aria-label="抽象工作台示意图">
  <rect width="1280" height="720" fill="#161616"/>
  <rect x="40" y="45" width="1200" height="630" fill="#242424" stroke="#8f8f8f" stroke-width="3"/>
  <rect x="40" y="45" width="1200" height="54" fill="#333333"/>
  <circle cx="72" cy="72" r="10" fill="#9C6B3F"/><circle cx="102" cy="72" r="10" fill="#F0E6D2"/><circle cx="132" cy="72" r="10" fill="#002FA7"/>
  <rect x="72" y="132" width="248" height="510" fill="#1b1b1b"/><rect x="348" y="132" width="520" height="510" fill="#20252a"/><rect x="896" y="132" width="312" height="510" fill="#1b1b1b"/>
  <g fill="#dadada" font-family="Arial,sans-serif" font-size="28"><text x="100" y="180">项目文件</text><text x="380" y="180">编辑器</text><text x="928" y="180">预览</text></g>
  <g fill="#676767"><rect x="100" y="220" width="170" height="22"/><rect x="100" y="270" width="140" height="22"/><rect x="100" y="320" width="185" height="22"/><rect x="100" y="370" width="120" height="22"/></g>
  <g fill="#9C6B3F"><rect x="390" y="230" width="120" height="20"/><rect x="390" y="280" width="260" height="20"/><rect x="390" y="330" width="190" height="20"/><rect x="390" y="380" width="320" height="20"/></g>
  <rect x="930" y="230" width="240" height="240" fill="#F0E6D2"/><rect x="960" y="265" width="180" height="36" fill="#002FA7"/><rect x="960" y="330" width="130" height="24" fill="#9C6B3F"/><rect x="960" y="390" width="170" height="24" fill="#242424"/>
</svg>